
      <svg data-logo="logo" xmlns="http://www.w3.org/2000/svg" viewBox="0 0 136 43">
        <g id="logogram" transform="translate(0, 1) rotate(0) "><path d="M40.207 22.1241H33.0426C26.7844 22.1241 21.7112 27.1973 21.7112 33.4555V40.6199C31.5885 39.8876 39.4747 32.0014 40.207 22.1241Z" fill="#46C32C"/><path d="M18.7029 40.6199V33.4555C18.7029 27.1973 13.6296 22.1241 7.37148 22.1241H0.207031C0.939394 32.0014 8.8256 39.8876 18.7029 40.6199Z" fill="#46C32C"/><path d="M40.207 19.1158C39.4747 9.23851 31.5885 1.3523 21.7112 0.619934V7.78438C21.7112 14.0425 26.7844 19.1158 33.0426 19.1158H40.207Z" fill="#46C32C"/><path d="M18.7029 0.619934C8.8256 1.3523 0.939394 9.23851 0.207031 19.1158H7.37148C13.6296 19.1158 18.7029 14.0425 18.7029 7.78438V0.619934Z" fill="#46C32C"/><path d="M13.7722 20.6197C16.5524 19.2306 18.8182 16.9648 20.2073 14.1846C21.5963 16.9648 23.8621 19.2306 26.6423 20.6197C23.8621 22.0087 21.5963 24.2745 20.2073 27.0547C18.8182 24.2745 16.5524 22.0087 13.7722 20.6197Z" fill="#BD656E"/></g>
        <g id="logotype" transform="translate(47, 8.5)"><path fill="#827d7d" d="M14.68 1.20L19.69 1.20L19.69 18.21Q19.69 20.41 19.00 21.94Q18.32 23.46 16.71 24.23Q15.10 25 12.30 25L12.30 25L7.12 25L7.12 20.84L10.80 20.84Q12.41 20.84 13.23 20.55Q14.05 20.27 14.37 19.54Q14.68 18.80 14.68 17.44L14.68 17.44L14.68 1.20ZM28.09 12.47L28.09 13.73Q28.09 17.72 29.91 19.57Q31.73 21.43 34.63 21.43L34.63 21.43Q37.57 21.43 39.37 19.59Q41.17 17.75 41.17 13.87L41.17 13.87L41.17 12.61Q41.17 9.95 40.35 8.20Q39.53 6.45 38.04 5.61Q36.55 4.77 34.63 4.77L34.63 4.77Q32.70 4.77 31.22 5.61Q29.73 6.45 28.91 8.16Q28.09 9.88 28.09 12.47L28.09 12.47ZM46.36 12.47L46.36 13.73Q46.36 17.51 44.87 20.15Q43.38 22.80 40.76 24.18Q38.13 25.56 34.63 25.56L34.63 25.56Q31.16 25.56 28.51 24.18Q25.84 22.80 24.38 20.19Q22.91 17.58 22.91 13.87L22.91 13.87L22.91 12.61Q22.91 8.83 24.39 6.15Q25.88 3.47 28.54 2.06Q31.20 0.64 34.63 0.64L34.63 0.64Q38.13 0.64 40.76 2.04Q43.38 3.44 44.87 6.08Q46.36 8.72 46.36 12.47L46.36 12.47ZM65.85 25L49.71 25L49.71 1.20L54.69 1.20L54.69 20.84L65.85 20.84L65.85 25ZM78.49 25.56L78.49 25.56Q73.76 25.56 71.14 23.39Q68.51 21.22 68.51 16.67L68.51 16.67L68.51 1.20L73.52 1.20L73.52 16.53Q73.52 18.91 74.79 20.17Q76.07 21.43 78.56 21.43L78.56 21.43Q83.49 21.43 83.49 16.67L83.49 16.67L83.49 1.20L88.50 1.20L88.50 16.53Q88.50 21.15 85.87 23.36Q83.25 25.56 78.49 25.56Z"/></g>
        
      </svg>
    